<svg width="18" height="18" viewBox="0 0 18 18" fill="none" xmlns="http://www.w3.org/2000/svg">
<path d="M18 5.30522V4.25053H15.7861V2.21386H13.7494V0H12.6947V2.21386H11.6384V0H10.5837V2.21386H9.52734V0H8.47266V2.21386H7.41628V0H6.36159V2.21386H5.30522V0H4.25053V2.21386H2.21386V4.25053H0V5.30522H2.21386V6.36159H0V7.41628H2.21386V8.47266H0V9.52734H2.21386V10.5837H0V11.6384H2.21386V12.6948H0V13.7495H2.21386V15.7861H4.25053V18H5.30522V15.7861H6.36159V18H7.41628V15.7861H8.47266V18H9.52734V15.7861H10.5837V18H11.6384V15.7861H12.6948V18H13.7495V15.7861H15.7862V13.7495H18V12.6948H15.7861V11.6384H18V10.5837H15.7861V9.52734H18V8.47266H15.7861V7.41628H18V6.36159H15.7861V5.30522H18ZM13.6768 13.6768H4.32323V4.32323H13.6768V13.6768Z" fill="#00843C"/>
<path d="M5.37784 5.37781H12.6221V12.6221H5.37784V5.37781Z" fill="#00843C"/>
</svg>
