<svg width="25" height="23" viewBox="0 0 25 23" fill="none" xmlns="http://www.w3.org/2000/svg">
<path d="M9.25006 17.612V22.25C9.25082 22.4076 9.30116 22.561 9.39395 22.6884C9.48674 22.8159 9.61726 22.9109 9.76704 22.96C9.91682 23.0091 10.0783 23.0098 10.2285 22.9621C10.3787 22.9144 10.5101 22.8206 10.6041 22.694L13.3171 19.002L9.25006 17.612ZM24.1851 0.139013C24.0724 0.0587669 23.9397 0.0112512 23.8017 0.00172102C23.6637 -0.00780914 23.5257 0.0210176 23.4031 0.0850133L0.903057 11.835C0.7736 11.9034 0.666933 12.0082 0.596148 12.1363C0.525363 12.2645 0.49354 12.4106 0.504584 12.5566C0.515627 12.7026 0.569057 12.8422 0.658317 12.9583C0.747576 13.0744 0.868781 13.1618 1.00706 13.21L7.26206 15.348L20.5831 3.95801L10.2751 16.377L20.7581 19.96C20.8621 19.995 20.9725 20.0067 21.0815 19.9946C21.1906 19.9824 21.2957 19.9465 21.3894 19.8894C21.4831 19.8324 21.5633 19.7555 21.6242 19.6642C21.6851 19.573 21.7253 19.4695 21.7421 19.361L24.4921 0.861013C24.5124 0.724063 24.4945 0.584151 24.4403 0.456737C24.3862 0.329322 24.2978 0.219365 24.1851 0.139013Z" fill="white"/>
</svg>
