<svg width="18" height="19" viewBox="0 0 18 19" fill="none" xmlns="http://www.w3.org/2000/svg">
<path d="M3.9375 8.9375C4.01138 8.93758 4.08454 8.92306 4.15279 8.89477C4.22104 8.86649 4.28302 8.825 4.33519 8.77269C4.58212 8.52575 6.75 6.30387 6.75 4.4375C6.75 2.88669 5.48831 1.625 3.9375 1.625C2.38669 1.625 1.125 2.88669 1.125 4.4375C1.125 6.30387 3.29288 8.52575 3.53981 8.77269C3.59198 8.825 3.65396 8.86649 3.72221 8.89477C3.79046 8.92306 3.86362 8.93758 3.9375 8.9375ZM3.09375 4.4375C3.09375 3.97231 3.47231 3.59375 3.9375 3.59375C4.40269 3.59375 4.78125 3.97231 4.78125 4.4375C4.78125 4.90269 4.40269 5.28125 3.9375 5.28125C3.47231 5.28125 3.09375 4.90269 3.09375 4.4375ZM14.0625 11.75C12.5117 11.75 11.25 13.0117 11.25 14.5625C11.25 16.1133 12.5117 17.375 14.0625 17.375C15.6133 17.375 16.875 16.1133 16.875 14.5625C16.875 13.0117 15.6133 11.75 14.0625 11.75ZM14.0625 15.4062C13.5973 15.4062 13.2188 15.0277 13.2188 14.5625C13.2188 14.0973 13.5973 13.7188 14.0625 13.7188C14.5277 13.7188 14.9062 14.0973 14.9062 14.5625C14.9062 15.0277 14.5277 15.4062 14.0625 15.4062Z" fill="#00843C"/>
<path d="M3.375 15.125H10.125C10.2742 15.125 10.4173 15.0657 10.5227 14.9602C10.6282 14.8548 10.6875 14.7117 10.6875 14.5625C10.6875 14.4133 10.6282 14.2702 10.5227 14.1648C10.4173 14.0593 10.2742 14 10.125 14H3.375C2.75456 14 2.25 13.4954 2.25 12.875C2.25 12.2546 2.75456 11.75 3.375 11.75H11.8125C12.7429 11.75 13.5 10.9929 13.5 10.0625C13.5 9.13212 12.7429 8.375 11.8125 8.375H6.1875C6.03832 8.375 5.89524 8.43426 5.78975 8.53975C5.68426 8.64524 5.625 8.78832 5.625 8.9375C5.625 9.08668 5.68426 9.22976 5.78975 9.33525C5.89524 9.44074 6.03832 9.5 6.1875 9.5H11.8125C12.1224 9.5 12.375 9.75256 12.375 10.0625C12.375 10.3724 12.1224 10.625 11.8125 10.625H3.375C2.13412 10.625 1.125 11.6341 1.125 12.875C1.125 14.1159 2.13412 15.125 3.375 15.125Z" fill="#00843C"/>
</svg>
