<svg width="28" height="28" viewBox="0 0 28 28" fill="none" xmlns="http://www.w3.org/2000/svg">
<path d="M26.75 26.75L20.5974 20.5974M20.5974 20.5974C21.6498 19.545 22.4847 18.2956 23.0542 16.9205C23.6238 15.5455 23.9169 14.0717 23.9169 12.5833C23.9169 11.095 23.6238 9.62119 23.0542 8.24613C22.4847 6.87107 21.6498 5.62166 20.5974 4.56924C19.545 3.51681 18.2956 2.68198 16.9205 2.11242C15.5455 1.54285 14.0717 1.24969 12.5833 1.24969C11.095 1.24969 9.62119 1.54285 8.24613 2.11242C6.87107 2.68198 5.62166 3.51681 4.56924 4.56924C2.44377 6.6947 1.24969 9.57746 1.24969 12.5833C1.24969 15.5892 2.44377 18.4719 4.56924 20.5974C6.6947 22.7229 9.57746 23.9169 12.5833 23.9169C15.5892 23.9169 18.4719 22.7229 20.5974 20.5974Z" stroke="white" stroke-width="1.5" stroke-linecap="round" stroke-linejoin="round"/>
</svg>
